<svg xmlns="http://www.w3.org/2000/svg" version="1.0" viewBox="0 0 616.000000 616.000000" preserveAspectRatio="xMidYMid meet">

    <g transform="translate(0.000000,616.000000) scale(0.100000,-0.100000)" fill="#000000" stroke="none"><script xmlns=""/>
    <path d="M2199 5696 c-129 -37 -254 -144 -322 -272 -33 -64 -41 -73 -76 -82 -53 -13 -172 -93 -217 -145 -43 -51 -92 -144 -110 -212 -16 -59 -18 -171 -4 -245 l10 -52 -51 -56 c-28 -32 -61 -75 -74 -97 -48 -81 -68 -253 -44 -365 23 -112 24 -104 -16 -119 -50 -18 -178 -142 -219 -210 -55 -95 -68 -144 -73 -286 -9 -236 43 -377 199 -541 l59 -61 -13 -47 c-9 -36 -9 -63 0 -128 33 -229 102 -370 265 -544 139 -149 285 -251 422 -294 98 -31 322 -39 415 -15 116 29 200 78 284 165 98 100 126 161 134 282 6 105 -10 157 -64 209 l-35 34 -359 3 -358 3 -38 -33 c-21 -19 -50 -60 -65 -95 -24 -51 -34 -62 -58 -68 -53 -11 -71 1 -71 48 0 109 58 214 144 260 40 21 52 22 376 25 288 3 337 5 352 19 22 20 54 104 63 166 7 43 5 48 -16 55 -14 6 -39 4 -68 -5 -108 -32 -282 -25 -395 18 -37 13 -84 44 -131 85 -40 35 -78 64 -83 64 -5 0 -24 -7 -41 -16 -48 -24 -164 -15 -220 17 -46 26 -207 211 -249 287 -23 41 -24 51 -19 140 9 153 55 260 129 298 38 20 102 14 178 -15 73 -27 172 -28 242 -1 54 20 114 26 134 12 7 -4 25 -37 41 -73 47 -102 108 -168 181 -195 136 -49 153 -67 133 -139 -6 -21 -8 -72 -4 -115 7 -99 -3 -120 -58 -120 -74 0 -79 7 -79 120 0 111 8 97 -94 163 -64 40 -105 82 -151 152 l-38 56 -106 -7 c-83 -5 -120 -2 -171 11 -122 31 -128 31 -167 -6 -47 -46 -56 -71 -44 -135 12 -63 79 -205 120 -255 74 -89 200 -91 257 -4 27 41 63 34 97 -19 15 -24 27 -47 27 -51 0 -20 73 -93 116 -117 64 -34 193 -62 247 -54 44 7 142 42 166 61 68 50 141 147 165 219 36 105 47 466 17 565 -17 56 -70 135 -108 161 -32 22 -47 24 -198 29 -90 3 -165 8 -168 11 -49 56 -67 97 -67 150 0 31 -5 61 -12 68 -16 16 -121 15 -161 -2 -40 -17 -128 -109 -156 -164 -35 -68 -103 -70 -109 -3 -4 42 32 113 86 169 l44 45 -12 43 c-8 26 -11 81 -8 136 7 153 54 233 193 328 71 48 146 80 189 80 13 0 31 9 40 19 15 17 17 32 10 112 l-7 93 -51 54 c-46 48 -51 59 -51 98 0 52 13 64 71 64 33 0 49 -7 73 -29 59 -55 100 -186 101 -317 0 -50 19 -69 80 -79 25 -4 67 -14 93 -23 48 -17 49 -17 67 5 45 55 65 275 34 379 -20 70 -98 188 -159 241 -79 71 -141 95 -248 99 -57 2 -110 -2 -138 -10z"/>
    <path d="M3639 5696 c-108 -29 -236 -144 -291 -263 -28 -58 -33 -82 -36 -165 -3 -73 0 -109 13 -150 27 -82 52 -125 76 -131 29 -8 159 22 181 40 9 9 20 36 23 62 20 157 58 255 120 309 42 37 85 42 115 12 35 -35 24 -86 -30 -145 -34 -37 -50 -90 -50 -171 0 -73 10 -85 95 -109 79 -22 200 -88 248 -133 21 -21 51 -64 67 -96 29 -57 30 -64 30 -203 l0 -144 51 -62 c29 -34 58 -76 65 -94 47 -111 -31 -154 -99 -56 -45 66 -116 142 -149 159 -15 8 -56 14 -96 14 -87 0 -102 -13 -102 -91 0 -61 -23 -107 -66 -136 -23 -15 -58 -19 -208 -23 -112 -3 -189 -10 -202 -17 -33 -19 -85 -82 -108 -132 -19 -42 -21 -63 -21 -261 0 -234 8 -285 62 -380 33 -58 138 -166 183 -189 102 -51 236 -60 335 -21 71 28 148 101 192 182 15 29 35 54 45 56 9 2 31 -10 50 -26 77 -68 174 -81 250 -33 110 70 168 319 95 414 -35 46 -59 53 -105 30 -31 -15 -62 -18 -187 -18 l-149 0 -23 -40 c-37 -67 -109 -141 -170 -175 -94 -53 -93 -50 -93 -156 0 -85 -2 -94 -21 -105 -30 -15 -86 -2 -103 24 -9 14 -16 69 -20 153 -7 145 -6 149 55 160 97 19 193 103 253 221 48 96 70 105 169 69 96 -35 181 -35 265 -1 108 44 167 30 221 -52 54 -82 74 -167 68 -291 -3 -59 -12 -131 -21 -159 -24 -77 -93 -172 -151 -208 -45 -28 -55 -30 -144 -30 -53 0 -117 6 -143 14 l-47 13 -53 -55 c-30 -30 -83 -70 -119 -88 -63 -33 -66 -33 -219 -37 -127 -3 -163 -1 -200 13 -69 26 -83 27 -103 13 -17 -13 -18 -19 -7 -59 15 -56 66 -160 88 -176 12 -10 92 -13 319 -13 328 0 357 -4 436 -57 45 -31 112 -129 128 -186 7 -26 8 -52 2 -71 -8 -29 -12 -31 -53 -31 -45 0 -45 0 -77 61 -18 34 -53 80 -78 103 l-45 41 -347 2 c-446 3 -402 6 -439 -36 -43 -50 -58 -110 -51 -203 9 -116 52 -197 164 -304 140 -134 242 -175 433 -173 198 2 389 69 540 189 191 152 324 339 380 535 39 137 42 154 36 246 l-5 91 35 34 c43 41 114 140 137 190 45 98 67 297 47 419 -28 174 -66 248 -197 378 l-93 93 11 95 c22 183 -24 335 -135 450 -44 45 -55 64 -50 79 13 39 16 171 5 230 -35 187 -204 375 -369 410 -27 5 -37 16 -59 58 -49 98 -142 200 -224 246 -96 54 -233 73 -330 47z"/>
    <path d="M2300 4859 c-106 -19 -210 -90 -252 -173 -21 -41 -20 -104 2 -146 15 -27 71 -40 176 -40 l92 0 7 -57 c15 -124 72 -196 170 -214 115 -21 215 26 268 125 19 36 21 57 22 176 0 120 -2 140 -22 175 -27 51 -100 119 -150 140 -47 20 -235 28 -313 14z"/>
    <path d="M3550 4864 c-49 -8 -140 -37 -140 -46 0 -4 -6 -8 -14 -8 -8 0 -33 -21 -55 -47 -106 -125 -108 -352 -3 -465 14 -16 32 -28 39 -28 7 0 13 -4 13 -9 0 -15 144 -43 186 -35 52 9 72 20 117 63 50 47 63 74 77 152 l11 64 119 0 c117 0 119 0 149 29 64 61 46 141 -50 230 -72 67 -117 83 -274 96 -122 10 -131 10 -175 4z"/>
    <path d="M2361 1494 c-40 -33 -39 -50 5 -95 l35 -36 8 -234 c8 -257 8 -255 76 -328 40 -42 43 -51 48 -111 3 -36 8 -79 12 -97 10 -46 105 -146 167 -177 l52 -26 306 0 c359 0 383 4 462 78 71 66 81 91 85 201 l3 95 46 47 c59 60 63 80 63 339 l1 196 45 44 c47 46 55 69 30 90 -11 9 -166 12 -663 11 -560 -2 -655 0 -693 13 -56 20 -52 20 -88 -10z m1209 -194 c6 -8 9 -37 8 -65 l-3 -50 -505 0 -505 0 -23 23 c-28 27 -23 56 15 90 l25 23 489 -3 c422 -3 491 -5 499 -18z m-27 -289 c20 -16 23 -91 5 -109 -9 -9 -131 -12 -487 -12 -427 0 -476 2 -493 17 -28 25 -19 91 16 116 6 4 221 6 477 5 377 -3 469 -6 482 -17z m-88 -311 c23 -25 24 -76 1 -98 -19 -19 -184 -30 -498 -31 -181 -1 -233 6 -250 32 -13 20 -9 71 8 95 l15 22 353 0 c341 0 354 -1 371 -20z"/>
    </g>
    </svg>